PathFileType	4	(x/y/z)	A01_SLOW_T0027.trc
DataRate	CameraRate	NumFrames	NumMarkers	Units	OrigDataRate	OrigDataStartFrame	OrigNumFrames
240	240	4	48	mm	240	213	340
Frame#	Time	TOP_HEAD			R_AC			L_AC			R_ASIS			L_ASIS			R_PSIS			L_PSIS			SACRAL			L_IC			R_IC			L_GT			R_GT			R_LAT_KNEE			R_MED_KNEE			L_MED_KNEE			L_LAT_KNEE			R_TOE			L_TOE			R_1ST_MET			L_1ST_MET			L_5TH_MET			R_5TH_MET			R_LAT_ANK			R_MED_ANK			L_MED_ANK			L_LAT_ANK			L_HEEL_SUP			R_HEEL_SUP			L_HEEL_LAT			R_HEEL_LAT			L_HEEL_MED			R_HEEL_MED			R_LL_PROX_POST			R_LL_PROX_ANT			R_LL_DIST_ANT			R_LL_DIST_POST			R_THIGH_PROX_POST			R_THIGH_PROX_ANT			R_THIGH_DIST_ANT			R_THIGH_DIST_POST			L_PROS_PROX_ANT			L_PROS_PROX_POST			L_PROS_DIST_POST			L_PROS_DIST_ANT			L_THIGH_PROX_ANT			L_THIGH_PROX_POST			L_THIGH_DIST_POST			L_THIGH_DIST_ANT			
		X1	Y1	Z1	X2	Y2	Z2	X3	Y3	Z3	X4	Y4	Z4	X5	Y5	Z5	X6	Y6	Z6	X7	Y7	Z7	X8	Y8	Z8	X9	Y9	Z9	X10	Y10	Z10	X11	Y11	Z11	X12	Y12	Z12	X13	Y13	Z13	X14	Y14	Z14	X15	Y15	Z15	X16	Y16	Z16	X17	Y17	Z17	X18	Y18	Z18	X19	Y19	Z19	X20	Y20	Z20	X21	Y21	Z21	X22	Y22	Z22	X23	Y23	Z23	X24	Y24	Z24	X25	Y25	Z25	X26	Y26	Z26	X27	Y27	Z27	X28	Y28	Z28	X29	Y29	Z29	X30	Y30	Z30	X31	Y31	Z31	X32	Y32	Z32	X33	Y33	Z33	X34	Y34	Z34	X35	Y35	Z35	X36	Y36	Z36	X37	Y37	Z37	X38	Y38	Z38	X39	Y39	Z39	X40	Y40	Z40	X41	Y41	Z41	X42	Y42	Z42	X43	Y43	Z43	X44	Y44	Z44	X45	Y45	Z45	X46	Y46	Z46	X47	Y47	Z47	X48	Y48	Z48	

213	0.88594	351.62	1727.8	336.68	130.81	1527.5	569.81	98.6	1545.2	115.37	113.82	1076.1	535.58	90.338	1012.5	184.49	-113.14	1071.2	427.18	-108.73	1078	293.92	-128.82	1045.5	359.68	69.79	1143.5	148.32	79.843	1165.8	545.97	18.545	937.46	146.32	64.545	962.93	578.79	169.67	569.55	511.2	194.54	576.11	379.93	10.396	512.77	338.57	-23.192	549.29	188.56	413.06	78.549	409.39	-253.97	65.177	227.53	329.52	57.396	365.08	-319.06	97.802	297.16	-363.72	126.63	178.87	306.38	46.383	500.33	184.55	103.69	477.31	185.75	112.24	375.53	-344.32	247.43	301.88	-380.77	269.54	241.3	-466.66	290.42	299.12	84.34	66.368	423.45	-488.27	269.75	267.84	94.219	43.005	457.11	-472.55	254.92	328.78	96.961	40.863	397.74	97.786	385.32	515.26	169.1	382.09	530.75	176.9	308.54	511.64	121.05	305.96	502.36	63.443	813.15	556.39	123.07	849.56	565.12	150.56	763.1	553.19	93.126	729.44	542.36	-49.176	458.48	195.39	-88.616	497.92	193.73	-136.82	458.04	205.62	-93.885	424.58	205.04	63.671	787.4	177.72	-5.0821	801.02	162.44	-2.2354	724.78	170.83	60.508	713.45	184.25
214	0.89012	356.07	1728.4	337.13	136.19	1528.1	570.19	102.71	1545.3	115.83	119.13	1075.9	536.52	95.592	1013	185.22	-108.03	1071	428.09	-103.72	1077.6	294.8	-123.61	1045.2	360.56	74.608	1143.6	148.97	85.203	1166.1	546.36	24.141	937.79	146.89	69.663	962.65	579.51	173.79	569.36	511.5	198.75	576.03	380.2	19.869	512.14	337.77	-14.731	549.86	188.28	413.59	77.451	409.32	-249.13	66.728	226.02	329.82	57.008	364.95	-313.24	99.758	296.4	-358.66	129.94	178.76	306.54	46.19	500.39	185.09	103.81	477.04	186.26	112.15	375.21	-337.22	249.7	302.34	-374	272.45	242.18	-458.76	294.17	301.07	84.698	66.799	423.39	-480.9	273.93	269.79	94.39	43.417	457.1	-464.81	258.55	330.5	97.178	41.213	397.71	100.58	385.68	515.21	171.89	381.97	530.67	179.28	308.39	511.44	123.35	306.18	502.16	68.104	813.07	556.86	127.84	849.29	565.79	155.07	762.73	553.81	97.557	729.29	542.82	-41.353	459.2	194.74	-80.489	498.94	193.65	-128.91	459.33	205.69	-86.243	425.56	204.53	70.291	787.92	177.64	1.4022	801.11	162.57	4.8021	724.87	170.72	67.664	713.95	183.94
215	0.8943	360.49	1729	337.53	141.52	1528.7	570.55	106.75	1545.4	116.25	124.42	1075.8	537.43	100.82	1013.5	185.93	-102.94	1070.7	428.99	-98.749	1077.2	295.67	-118.41	1044.8	361.44	79.368	1143.8	149.6	90.649	1166.4	546.77	29.706	938.12	147.43	74.779	962.42	580.2	177.88	569.18	511.79	202.97	575.94	380.48	29.362	511.56	336.96	-6.2646	550.51	188.02	414.07	76.456	409.26	-243.97	68.369	224.41	330.09	56.688	364.81	-307.12	101.67	295.57	-353.32	133.19	178.6	306.68	46.047	500.45	185.61	103.95	476.78	186.74	112.08	374.91	-329.93	251.85	302.76	-367.03	275.24	243.05	-450.73	297.64	302.99	85.038	67.223	423.34	-473.37	277.82	271.73	94.55	43.825	457.09	-456.9	261.89	332.2	97.383	41.56	397.68	103.34	386.05	515.17	174.64	381.87	530.58	181.63	308.26	511.25	125.62	306.42	501.98	72.757	813.01	557.33	132.59	849.05	566.41	159.58	762.41	554.4	101.99	729.17	543.27	-33.475	459.99	194.1	-72.325	500.01	193.59	-120.93	460.65	205.76	-78.525	426.6	204.03	76.901	788.47	177.55	7.878	801.22	162.69	11.835	724.98	170.62	74.813	714.48	183.64
216	0.89848	364.89	1729.6	337.88	146.8	1529.2	570.92	110.72	1545.4	116.65	129.69	1075.7	538.29	106.01	1014.1	186.61	-97.871	1070.5	429.87	-93.805	1076.8	296.53	-113.25	1044.4	362.32	84.074	1143.8	150.22	96.176	1166.7	547.2	35.238	938.46	147.95	79.889	962.24	580.86	181.94	569.01	512.05	207.17	575.85	380.78	38.87	511.04	336.16	2.2114	551.23	187.77	414.52	75.556	409.19	-238.48	70.08	222.73	330.34	56.426	364.69	-300.69	103.52	294.67	-347.7	136.35	178.38	306.8	45.945	500.49	186.11	104.1	476.53	187.19	112.04	374.62	-322.44	253.88	303.14	-359.89	277.89	243.9	-442.58	300.83	304.87	85.361	67.642	423.29	-465.7	281.41	273.64	94.701	44.23	457.08	-448.82	264.95	333.86	97.577	41.905	397.65	106.06	386.44	515.14	177.36	381.78	530.5	183.94	308.14	511.06	127.86	306.66	501.81	77.4	812.99	557.78	137.34	848.85	567.01	164.09	762.13	554.94	106.41	729.08	543.71	-25.541	460.85	193.47	-64.12	501.12	193.54	-112.89	461.98	205.84	-70.728	427.67	203.52	83.503	789.05	177.46	14.35	801.35	162.81	18.869	725.12	170.53	81.961	715.04	183.34
